<svg version="1.1" id="Layer_1" xmlns="http://www.w3.org/2000/svg" xmlns:xlink="http://www.w3.org/1999/xlink" x="0px" y="0px"
	 width="100%" viewBox="0 0 512 512" enable-background="new 0 0 512 512" xml:space="preserve">
<path fill="#FFFFFF" opacity="1.000000" stroke="none" 
	d="
M407.000000,513.000000 
	C278.977356,513.000000 150.954727,513.000000 22.629932,512.677551 
	C23.544559,511.858215 24.738625,511.294128 25.981400,510.874207 
	C66.247803,497.268829 106.533630,483.720551 146.759109,469.995331 
	C149.728027,468.982300 152.267212,466.709778 155.325439,464.917542 
	C183.093155,437.373138 210.531952,409.924347 237.997406,382.502258 
	C244.233078,376.276459 250.561401,370.143494 257.000244,364.273102 
	C302.344727,409.781372 347.515411,455.005035 392.759277,500.155365 
	C397.278442,504.665131 402.242462,508.729095 407.000000,513.000000 
z"/>
<path fill="#FFFFFF" opacity="1.000000" stroke="none" 
	d="
M1.000001,492.000000 
	C1.000000,363.644043 1.000000,235.288055 1.328077,106.603088 
	C3.893466,109.459229 5.721957,113.051666 8.428975,115.768867 
	C54.052376,161.563858 99.786568,207.248474 145.486771,252.966980 
	C146.773758,254.254501 147.956924,255.645782 149.032059,257.294556 
	C116.450020,290.036591 84.021164,322.469452 51.611069,354.921082 
	C50.348351,356.185394 49.265640,357.629486 47.933815,359.300079 
	C46.510136,361.916901 44.914059,364.104218 44.050400,366.550140 
	C39.817612,378.537842 35.763607,390.588837 31.676353,402.627655 
	C22.863140,428.586517 14.081944,454.556305 5.251000,480.509125 
	C3.935879,484.374084 2.421961,488.171387 1.000001,492.000000 
z"/>
<path fill="#FFFFFF" opacity="1.000000" stroke="none" 
	d="
M513.000000,98.000000 
	C513.000000,201.021439 513.000000,304.042877 512.685547,407.393066 
	C511.446350,406.179932 510.789642,404.370178 509.556732,403.136139 
	C489.125519,382.687195 468.622009,362.310486 447.975708,341.619568 
	C440.896149,334.528595 433.975494,327.735687 426.919617,320.637756 
	C419.880493,313.524292 412.976624,306.715881 405.932983,299.605164 
	C398.891266,292.503571 391.989288,285.704315 384.935059,278.609070 
	C377.799530,271.205475 370.816284,264.097870 363.981445,256.681641 
	C375.725220,244.596939 387.320587,232.820847 399.221832,220.898926 
	C426.003418,194.273392 452.479126,167.793671 479.242188,141.117523 
	C488.092682,132.022141 497.101746,123.497498 505.023224,114.059990 
	C508.758362,109.609993 510.406281,103.408073 513.000000,98.000000 
z"/>
<path fill="#FFFFFF" opacity="1.000000" stroke="none" 
	d="
M106.000000,1.000001 
	C209.021439,1.000000 312.042877,1.000000 415.379364,1.349277 
	C412.783813,2.637719 409.730621,3.274220 406.986389,4.566658 
	C392.460327,11.407896 382.837830,23.957094 371.642578,35.158573 
	C355.196869,51.406712 339.018707,67.481102 322.902313,83.617142 
	C312.554901,93.977165 302.298401,104.428009 291.694092,114.986404 
	C279.868683,126.757797 268.350342,138.380920 256.539307,149.860703 
	C249.535995,143.116348 242.825394,136.515335 235.961517,129.615021 
	C228.887634,122.515221 221.967010,115.714706 214.907547,108.612793 
	C207.873749,101.525650 200.978790,94.739906 193.950928,87.646484 
	C186.906738,80.520615 179.995438,73.702423 172.934326,66.588089 
	C154.109070,47.614319 135.469894,28.900177 116.724541,10.293007 
	C113.375099,6.968254 109.586060,4.086371 106.000000,1.000001 
z"/>
<path fill="#FCBF29" opacity="1.000000" stroke="none" 
	d="
M407.460632,513.000000 
	C402.242462,508.729095 397.278442,504.665131 392.759277,500.155365 
	C347.515411,455.005035 302.344727,409.781372 257.126770,363.955780 
	C274.648315,345.843231 292.196442,328.353241 310.066223,311.004761 
	C311.019501,311.685455 311.691498,312.184296 312.277008,312.769653 
	C362.704315,363.183960 413.126495,413.603424 463.533997,464.037567 
	C464.463348,464.967438 465.212311,466.077606 465.900696,467.400208 
	C450.170654,482.797821 434.585327,497.898926 419.000000,513.000000 
	C415.307098,513.000000 411.614166,513.000000 407.460632,513.000000 
z"/>
<path fill="#FCBF29" opacity="1.000000" stroke="none" 
	d="
M149.188507,256.988678 
	C147.956924,255.645782 146.773758,254.254501 145.486771,252.966980 
	C99.786568,207.248474 54.052376,161.563858 8.428975,115.768867 
	C5.721957,113.051666 3.893466,109.459229 1.328077,106.137039 
	C1.000000,102.969406 1.000000,99.938812 1.322766,96.329185 
	C2.567003,94.207733 3.219493,92.396584 4.450992,91.163895 
	C18.908539,76.692314 33.452953,62.307518 48.114357,48.208008 
	C49.628181,49.962582 50.970600,51.440495 52.380615,52.850826 
	C101.228508,101.709679 150.085663,150.559280 198.922684,199.428986 
	C200.438080,200.945419 201.754486,202.660721 203.023407,204.582062 
	C186.339844,221.435272 169.811722,238.005035 153.218491,254.509308 
	C152.129990,255.591965 150.543396,256.173859 149.188507,256.988678 
z"/>
<path fill="#FEDB41" opacity="1.000000" stroke="none" 
	d="
M466.045441,467.103668 
	C465.212311,466.077606 464.463348,464.967438 463.533997,464.037567 
	C413.126495,413.603424 362.704315,363.183960 312.277008,312.769653 
	C311.691498,312.184296 311.019501,311.685455 310.206726,310.697144 
	C323.419281,296.845947 336.789307,283.420105 350.220032,270.055237 
	C354.677460,265.619629 359.290924,261.340790 363.833038,256.990265 
	C370.816284,264.097870 377.799530,271.205475 384.631714,278.764465 
	C373.966766,289.676270 363.398132,300.082489 352.964752,310.622559 
	C348.485474,315.147644 347.514526,321.716400 350.094299,327.280243 
	C354.705933,337.226135 366.090302,339.378235 375.070404,331.071472 
	C385.817657,321.130127 395.773895,310.333618 406.072723,299.907501 
	C412.976624,306.715881 419.880493,313.524292 426.772034,320.941833 
	C416.199280,332.178986 405.572174,342.741852 395.105804,353.461639 
	C389.617279,359.083069 389.630371,367.635468 394.808929,373.340424 
	C400.283905,379.371918 409.069550,380.971130 414.368530,375.894928 
	C425.895386,364.852570 436.910400,353.275909 448.134644,341.917664 
	C468.622009,362.310486 489.125519,382.687195 509.556732,403.136139 
	C510.789642,404.370178 511.446350,406.179932 512.685547,407.860901 
	C513.000000,411.030609 513.000000,414.061188 512.681152,417.697632 
	C511.694427,419.584076 511.286407,421.118988 510.319580,422.107239 
	C495.604584,437.148193 480.816498,452.117584 466.045441,467.103668 
z"/>
<path fill="#FEDB41" opacity="1.000000" stroke="none" 
	d="
M203.163666,204.283295 
	C201.754486,202.660721 200.438080,200.945419 198.922684,199.428986 
	C150.085663,150.559280 101.228508,101.709679 52.380615,52.850826 
	C50.970600,51.440495 49.628181,49.962582 48.249451,47.907372 
	C59.283020,36.246090 70.249390,25.120296 81.394028,14.176039 
	C86.068161,9.585942 91.119919,5.380381 96.000000,1.000001 
	C99.030594,1.000000 102.061188,1.000000 105.545891,1.000001 
	C109.586060,4.086371 113.375099,6.968254 116.724541,10.293007 
	C135.469894,28.900177 154.109070,47.614319 172.628174,66.740051 
	C161.959091,77.641029 151.435150,88.082642 140.939011,98.552124 
	C136.577179,102.902885 136.003220,108.295616 137.491058,113.848953 
	C140.267639,124.212448 153.697876,127.523010 161.678711,119.809814 
	C172.569916,109.283859 183.290253,98.581116 194.083832,87.954163 
	C200.978790,94.739906 207.873749,101.525650 214.754242,108.914749 
	C204.288895,120.033928 193.792496,130.505081 183.404938,141.083099 
	C177.578781,147.016052 177.407364,155.413086 182.772629,161.304260 
	C188.143112,167.201157 197.718445,168.347382 203.408569,162.879929 
	C214.566956,152.158127 225.240555,140.931839 236.114792,129.914322 
	C242.825394,136.515335 249.535995,143.116348 256.545959,150.198959 
	C238.951447,168.548141 221.057556,186.415726 203.163666,204.283295 
z"/>
<path fill="#FDC479" opacity="1.000000" stroke="none" 
	d="
M155.006165,465.022797 
	C152.267212,466.709778 149.728027,468.982300 146.759109,469.995331 
	C106.533630,483.720551 66.247803,497.268829 25.981400,510.874207 
	C24.738625,511.294128 23.544559,511.858215 22.163891,512.677551 
	C18.638712,513.000000 15.277425,513.000000 11.304002,512.696777 
	C8.806768,510.929688 6.921672,509.465759 5.338174,507.864136 
	C37.004749,476.416016 68.371300,445.107147 99.722366,413.782715 
	C100.298126,413.207458 100.689384,412.447540 101.389481,411.800903 
	C101.612236,411.828064 102.062988,411.829102 102.270386,412.094299 
	C119.987251,429.913940 137.496719,447.468353 155.006165,465.022797 
z"/>
<path fill="#FEDBAB" opacity="1.000000" stroke="none" 
	d="
M101.166718,411.773743 
	C100.689384,412.447540 100.298126,413.207458 99.722366,413.782715 
	C68.371300,445.107147 37.004749,476.416016 5.024049,507.733337 
	C3.272217,506.160126 2.136109,504.580048 1.000000,503.000000 
	C1.000000,499.638702 1.000000,496.277435 1.000001,492.458069 
	C2.421961,488.171387 3.935879,484.374084 5.251000,480.509125 
	C14.081944,454.556305 22.863140,428.586517 31.676353,402.627655 
	C35.763607,390.588837 39.817612,378.537842 44.050400,366.550140 
	C44.914059,364.104218 46.510136,361.916901 48.244583,359.407623 
	C66.202629,376.727844 83.684677,394.250793 101.166718,411.773743 
z"/>
<path fill="#E61E15" opacity="1.000000" stroke="none" 
	d="
M513.000000,97.531723 
	C510.406281,103.408073 508.758362,109.609993 505.023224,114.059990 
	C497.101746,123.497498 488.092682,132.022141 478.928162,140.975525 
	C460.830353,123.442787 443.333954,105.855637 426.003113,87.958183 
	C439.204163,74.529198 452.259888,61.430569 465.263550,48.280491 
	C469.584229,43.911171 473.771271,39.409718 478.331360,35.090569 
	C480.524384,37.085091 482.443268,38.921440 484.279846,40.836723 
	C491.485382,48.350941 499.145752,55.502171 505.659851,63.576668 
	C509.136871,67.886581 510.618073,73.806633 513.000000,79.000000 
	C513.000000,85.021156 513.000000,91.042305 513.000000,97.531723 
z"/>
<path fill="#FF4A4A" opacity="1.000000" stroke="none" 
	d="
M478.019409,34.968658 
	C473.771271,39.409718 469.584229,43.911171 465.263550,48.280491 
	C452.259888,61.430569 439.204163,74.529198 425.783264,87.921600 
	C425.397766,88.195320 424.953522,88.159187 424.774231,87.873566 
	C407.042053,70.062286 389.489166,52.536617 371.936279,35.010948 
	C382.837830,23.957094 392.460327,11.407896 406.986389,4.566658 
	C409.730621,3.274220 412.783813,2.637719 415.847229,1.349277 
	C422.021149,1.000000 428.042297,1.000000 434.684509,1.349274 
	C440.484222,3.906858 446.572327,5.049387 450.659271,8.536998 
	C460.286896,16.752783 468.960114,26.086931 478.019409,34.968658 
z"/>
<path fill="#FFFFFF" opacity="1.000000" stroke="none" 
	d="
M95.531342,1.000001 
	C91.119919,5.380381 86.068161,9.585942 81.394028,14.176039 
	C70.249390,25.120296 59.283020,36.246090 48.109558,47.599201 
	C33.452953,62.307518 18.908539,76.692314 4.450992,91.163895 
	C3.219493,92.396584 2.567003,94.207733 1.322766,95.875076 
	C1.000000,64.406410 1.000000,32.812813 1.000000,1.000000 
	C32.353886,1.000000 63.708286,1.000000 95.531342,1.000001 
z"/>
<path fill="#FFFFFF" opacity="1.000000" stroke="none" 
	d="
M465.900696,467.400208 
	C480.816498,452.117584 495.604584,437.148193 510.319580,422.107239 
	C511.286407,421.118988 511.694427,419.584076 512.681152,418.151733 
	C513.000000,449.593201 513.000000,481.186401 513.000000,513.000000 
	C481.979462,513.000000 450.958374,513.000000 419.468689,513.000000 
	C434.585327,497.898926 450.170654,482.797821 465.900696,467.400208 
z"/>
<path fill="#FFFFFF" opacity="1.000000" stroke="none" 
	d="
M478.331360,35.090569 
	C468.960114,26.086931 460.286896,16.752783 450.659271,8.536998 
	C446.572327,5.049387 440.484222,3.906858 435.152771,1.349274 
	C460.926880,1.000000 486.853760,1.000000 513.000000,1.000000 
	C513.000000,26.687145 513.000000,52.374912 513.000000,78.531342 
	C510.618073,73.806633 509.136871,67.886581 505.659851,63.576668 
	C499.145752,55.502171 491.485382,48.350941 484.279846,40.836723 
	C482.443268,38.921440 480.524384,37.085091 478.331360,35.090569 
z"/>
<path fill="#FFFFFF" opacity="1.000000" stroke="none" 
	d="
M1.000000,503.486572 
	C2.136109,504.580048 3.272217,506.160126 4.722450,507.870972 
	C6.921672,509.465759 8.806768,510.929688 10.845933,512.696777 
	C7.747541,513.000000 4.495082,513.000000 1.000000,513.000000 
	C1.000000,509.993408 1.000000,506.983246 1.000000,503.486572 
z"/>
<path fill="#1689FC" opacity="1.000000" stroke="none" 
	d="
M155.325439,464.917542 
	C137.496719,447.468353 119.987251,429.913940 102.425629,411.814453 
	C102.477585,411.139038 102.570206,410.997162 102.687439,410.879913 
	C182.451355,331.096832 262.213867,251.312378 342.013519,171.565063 
	C343.129181,170.450119 344.711548,169.802155 346.371643,169.088867 
	C349.370667,171.930542 352.069885,174.623779 354.778168,177.307922 
	C369.489532,191.888092 384.203125,206.466034 398.915955,221.044739 
	C387.320587,232.820847 375.725220,244.596939 363.981445,256.681641 
	C359.290924,261.340790 354.677460,265.619629 350.220032,270.055237 
	C336.789307,283.420105 323.419281,296.845947 309.885101,310.555664 
	C292.196442,328.353241 274.648315,345.843231 256.973633,363.650513 
	C250.561401,370.143494 244.233078,376.276459 237.997406,382.502258 
	C210.531952,409.924347 183.093155,437.373138 155.325439,464.917542 
z"/>
<path fill="#1BA9EF" opacity="1.000000" stroke="none" 
	d="
M346.076080,168.936234 
	C344.711548,169.802155 343.129181,170.450119 342.013519,171.565063 
	C262.213867,251.312378 182.451355,331.096832 102.687439,410.879913 
	C102.570206,410.997162 102.477585,411.139038 102.218231,411.549255 
	C102.062988,411.829102 101.612236,411.828064 101.389481,411.800903 
	C83.684677,394.250793 66.202629,376.727844 48.409821,359.097351 
	C49.265640,357.629486 50.348351,356.185394 51.611069,354.921082 
	C84.021164,322.469452 116.450020,290.036591 149.032043,257.294556 
	C150.543396,256.173859 152.129990,255.591965 153.218491,254.509308 
	C169.811722,238.005035 186.339844,221.435272 203.023407,204.582047 
	C221.057556,186.415726 238.951447,168.548141 256.838684,150.342300 
	C268.350342,138.380920 279.868683,126.757797 292.002991,115.132416 
	C294.645752,117.096451 296.692261,119.042831 298.696167,121.032166 
	C314.143524,136.367340 329.582611,151.710831 345.116943,167.308670 
	C345.498444,168.022476 345.787262,168.479355 346.076080,168.936234 
z"/>
<path fill="#C8C6CD" opacity="1.000000" stroke="none" 
	d="
M346.371643,169.088867 
	C345.787262,168.479355 345.498444,168.022476 345.459106,167.262573 
	C347.237061,165.719955 348.889618,164.604691 350.275513,163.222137 
	C372.087372,141.463242 393.873383,119.678413 415.640869,97.875175 
	C418.809784,94.701073 421.852448,91.400986 424.953522,88.159195 
	C424.953522,88.159187 425.397766,88.195320 425.617645,88.231903 
	C443.333954,105.855637 460.830353,123.442787 478.640808,141.171936 
	C452.479126,167.793671 426.003418,194.273392 399.221802,220.898926 
	C384.203125,206.466034 369.489532,191.888092 354.778168,177.307922 
	C352.069885,174.623779 349.370667,171.930542 346.371643,169.088867 
z"/>
<path fill="#FE9A23" opacity="1.000000" stroke="none" 
	d="
M405.932983,299.605164 
	C395.773895,310.333618 385.817657,321.130127 375.070404,331.071472 
	C366.090302,339.378235 354.705933,337.226135 350.094299,327.280243 
	C347.514526,321.716400 348.485474,315.147644 352.964752,310.622559 
	C363.398132,300.082489 373.966766,289.676270 384.783936,279.060455 
	C391.989288,285.704315 398.891266,292.503571 405.932983,299.605164 
z"/>
<path fill="#FE9923" opacity="1.000000" stroke="none" 
	d="
M447.975708,341.619568 
	C436.910400,353.275909 425.895386,364.852570 414.368530,375.894928 
	C409.069550,380.971130 400.283905,379.371918 394.808929,373.340424 
	C389.630371,367.635468 389.617279,359.083069 395.105804,353.461639 
	C405.572174,342.741852 416.199280,332.178986 426.907257,321.246887 
	C433.975494,327.735687 440.896149,334.528595 447.975708,341.619568 
z"/>
<path fill="#E5E4E5" opacity="1.000000" stroke="none" 
	d="
M424.774231,87.873581 
	C421.852448,91.400986 418.809784,94.701073 415.640869,97.875175 
	C393.873383,119.678413 372.087372,141.463242 350.275513,163.222137 
	C348.889618,164.604691 347.237061,165.719955 345.366425,167.005646 
	C329.582611,151.710831 314.143524,136.367340 298.696167,121.032166 
	C296.692261,119.042831 294.645752,117.096451 292.310059,114.984161 
	C302.298401,104.428009 312.554901,93.977165 322.902313,83.617142 
	C339.018707,67.481102 355.196869,51.406712 371.642578,35.158577 
	C389.489166,52.536617 407.042053,70.062286 424.774231,87.873581 
z"/>
<path fill="#FE9923" opacity="1.000000" stroke="none" 
	d="
M235.961517,129.615021 
	C225.240555,140.931839 214.566956,152.158127 203.408569,162.879929 
	C197.718445,168.347382 188.143112,167.201157 182.772629,161.304260 
	C177.407364,155.413086 177.578781,147.016052 183.404938,141.083099 
	C193.792496,130.505081 204.288895,120.033928 214.893082,109.216141 
	C221.967010,115.714706 228.887634,122.515221 235.961517,129.615021 
z"/>
<path fill="#FE9923" opacity="1.000000" stroke="none" 
	d="
M193.950928,87.646484 
	C183.290253,98.581116 172.569916,109.283859 161.678711,119.809814 
	C153.697876,127.523010 140.267639,124.212448 137.491058,113.848953 
	C136.003220,108.295616 136.577179,102.902885 140.939011,98.552124 
	C151.435150,88.082642 161.959091,77.641029 172.777985,67.036209 
	C179.995438,73.702423 186.906738,80.520615 193.950928,87.646484 
z"/>
</svg>