<svg version="1.1" id="Layer_1" xmlns="http://www.w3.org/2000/svg" xmlns:xlink="http://www.w3.org/1999/xlink" x="0px" y="0px"
	 width="100%" viewBox="0 0 1674 1406" enable-background="new 0 0 1674 1406" xml:space="preserve">
<path fill="#0000" opacity="1.000000" stroke="none" 
	d="
M985.000000,1407.000000 
	C656.666748,1407.000000 328.833466,1407.000000 1.000132,1407.000000 
	C1.000088,938.333496 1.000088,469.666962 1.000044,1.000321 
	C558.999756,1.000214 1116.999512,1.000214 1674.999512,1.000107 
	C1674.999634,469.666351 1674.999634,938.332703 1674.999756,1406.999512 
	C1445.166626,1407.000000 1215.333374,1407.000000 985.000000,1407.000000 
M747.251404,1348.845459 
	C785.811401,1334.480347 824.709473,1320.951294 862.842957,1305.531494 
	C907.216675,1287.588379 949.943665,1265.995972 991.940308,1242.993042 
	C1055.311523,1208.282837 1115.914673,1169.277344 1174.020996,1126.358276 
	C1224.857422,1088.808716 1273.556152,1048.632935 1319.038208,1004.781128 
	C1346.807007,978.007690 1373.269409,949.842834 1399.655640,921.681702 
	C1428.650391,890.736633 1454.921265,857.478821 1480.089111,823.355835 
	C1515.845459,774.876892 1547.724121,723.983765 1574.939453,670.234497 
	C1597.707153,625.269226 1616.719971,578.752930 1630.849487,530.328064 
	C1644.512451,483.501831 1653.197754,435.766693 1654.735352,386.961365 
	C1655.289062,369.384979 1654.267090,351.714905 1653.148926,334.139465 
	C1651.117798,302.216522 1644.404785,271.180084 1633.934082,240.951797 
	C1618.042236,195.073792 1593.269287,154.591995 1559.655884,119.618019 
	C1543.838623,103.160393 1526.234497,88.708237 1507.344971,75.849960 
	C1471.595337,51.514969 1432.679077,33.917240 1391.335693,21.593704 
	C1377.876099,17.581701 1364.208374,14.268247 1350.635986,10.635283 
	C1351.098511,12.337440 1351.895508,13.145400 1352.775635,13.849577 
	C1373.983032,30.816666 1392.151978,50.427460 1405.884399,74.026459 
	C1427.306152,110.838844 1436.407715,150.953308 1437.799927,193.064835 
	C1438.559326,216.030777 1436.409302,238.871033 1432.585083,261.505280 
	C1422.751465,319.707764 1402.127319,374.270477 1375.654785,426.713379 
	C1349.368164,478.787842 1317.798462,527.577576 1282.542603,574.033875 
	C1238.017212,632.704651 1188.908081,687.233948 1135.006226,737.395691 
	C1113.234619,757.656616 1091.053833,777.505493 1068.507080,796.899963 
	C1024.472534,834.777771 977.945190,869.433105 929.848328,901.970154 
	C863.246399,947.025696 793.807373,987.136292 721.037842,1021.433716 
	C678.359131,1041.548828 634.847778,1059.613770 590.269226,1075.074951 
	C552.257874,1088.258423 513.721680,1099.646729 474.448975,1108.466675 
	C411.140411,1122.684570 347.229492,1131.706787 282.177856,1128.242065 
	C258.860809,1127.000244 235.486801,1124.442383 212.467346,1120.544800 
	C175.851517,1114.344849 141.067978,1102.208618 109.041901,1083.002319 
	C71.821167,1060.680664 42.218571,1031.091187 23.358124,991.596375 
	C18.455540,981.330139 14.544898,970.590149 10.016219,959.676331 
	C9.683048,961.181946 9.256792,962.406616 9.158877,963.657043 
	C7.888753,979.876892 6.091913,996.081665 5.562846,1012.327271 
	C4.745077,1037.437866 6.311239,1062.478516 9.967896,1087.372925 
	C20.164848,1156.793701 47.468079,1218.314941 95.044281,1270.255005 
	C123.869110,1301.723999 157.867538,1326.576050 195.850677,1345.922119 
	C230.051254,1363.341431 266.071747,1375.709351 303.473419,1384.264282 
	C337.410217,1392.026733 371.781647,1396.699829 406.489807,1398.385620 
	C427.729126,1399.417114 449.049835,1399.153809 470.326874,1398.892456 
	C484.431702,1398.719360 498.614471,1398.283081 512.603455,1396.624390 
	C544.075745,1392.892578 575.575562,1389.090576 606.833496,1383.922241 
	C654.277039,1376.077393 700.653320,1363.579834 747.251404,1348.845459 
M434.417511,243.930222 
	C405.595520,268.490906 376.213776,292.432831 348.144470,317.825562 
	C328.815277,335.311615 310.621918,354.192291 293.156006,373.563232 
	C271.813019,397.234131 251.094193,421.541107 231.309677,446.526550 
	C201.922775,483.638702 176.483231,523.476318 155.354721,565.865479 
	C146.249084,584.133789 138.373322,603.081665 130.995239,622.129944 
	C117.671379,656.528809 109.295631,692.207581 107.099976,729.101196 
	C105.933136,748.707458 107.012810,768.295898 110.907860,787.658936 
	C119.165565,828.709412 138.511215,863.319641 170.906906,890.115906 
	C199.788651,914.005676 233.762497,927.170837 269.962433,934.823608 
	C298.671173,940.892700 327.835938,942.985168 357.185486,942.159851 
	C358.562286,942.121216 359.936646,941.995789 362.382233,941.844666 
	C360.630890,940.659119 359.873230,940.092896 359.066650,939.607971 
	C331.653564,923.128113 318.731354,898.224243 317.050629,866.921814 
	C315.912140,845.717712 320.104523,825.247803 326.589600,805.224792 
	C337.277100,772.226318 353.761444,742.059143 372.404236,712.997986 
	C402.885254,665.482910 439.616394,623.029358 478.974487,582.814636 
	C494.659546,566.788208 511.046478,551.363098 527.987915,536.672119 
	C553.323853,514.701721 578.900085,492.940918 605.320129,472.301910 
	C664.021484,426.445007 726.246582,385.801361 792.376892,351.467407 
	C822.894653,335.622955 854.010071,320.730316 885.684753,307.375183 
	C912.055969,296.256165 939.358948,287.084900 966.774536,278.786377 
	C989.414185,271.933533 1012.675293,266.847992 1035.934326,262.413300 
	C1056.263428,258.537201 1076.997559,257.425781 1097.794189,257.912842 
	C1117.733643,258.379822 1137.236694,261.103180 1155.954712,267.989441 
	C1180.911377,277.170898 1200.232300,292.743103 1209.972412,318.322113 
	C1212.207031,324.190155 1213.705566,330.338440 1215.866699,337.419067 
	C1217.221680,333.479889 1218.205078,330.528015 1219.249756,327.598053 
	C1234.661865,284.371887 1244.441772,240.258682 1241.115234,193.930908 
	C1240.015137,178.610336 1237.533447,163.627686 1233.104736,148.936310 
	C1223.033081,115.524544 1204.591309,87.585236 1177.717407,65.419876 
	C1155.532959,47.122448 1130.135986,34.925602 1102.650757,26.516157 
	C1076.778320,18.600143 1050.299927,14.543295 1023.477051,13.227797 
	C1003.599426,12.252921 983.540894,12.186504 963.713562,13.695113 
	C940.618225,15.452367 917.529236,18.478626 894.718323,22.534063 
	C850.627808,30.372690 807.683411,42.739834 765.544434,57.917774 
	C716.624634,75.538086 669.335815,96.767418 623.390747,121.100166 
	C579.087097,144.563614 536.245850,170.411209 495.233246,199.218277 
	C474.841919,213.541061 455.020996,228.676010 434.417511,243.930222 
z"/>
<path fill="#0076B2" opacity="1.000000" stroke="none" 
	d="
M746.860107,1348.934082 
	C700.653320,1363.579834 654.277039,1376.077393 606.833496,1383.922241 
	C575.575562,1389.090576 544.075745,1392.892578 512.603455,1396.624390 
	C498.614471,1398.283081 484.431702,1398.719360 470.326874,1398.892456 
	C449.049835,1399.153809 427.729126,1399.417114 406.489807,1398.385620 
	C371.781647,1396.699829 337.410217,1392.026733 303.473419,1384.264282 
	C266.071747,1375.709351 230.051254,1363.341431 195.850677,1345.922119 
	C157.867538,1326.576050 123.869110,1301.723999 95.044281,1270.255005 
	C47.468079,1218.314941 20.164848,1156.793701 9.967896,1087.372925 
	C6.311239,1062.478516 4.745077,1037.437866 5.562846,1012.327271 
	C6.091913,996.081665 7.888753,979.876892 9.158877,963.657043 
	C9.256792,962.406616 9.683048,961.181946 10.016219,959.676331 
	C14.544898,970.590149 18.455540,981.330139 23.358124,991.596375 
	C42.218571,1031.091187 71.821167,1060.680664 109.041901,1083.002319 
	C141.067978,1102.208618 175.851517,1114.344849 212.467346,1120.544800 
	C235.486801,1124.442383 258.860809,1127.000244 282.177856,1128.242065 
	C347.229492,1131.706787 411.140411,1122.684570 474.448975,1108.466675 
	C513.721680,1099.646729 552.257874,1088.258423 590.269226,1075.074951 
	C634.847778,1059.613770 678.359131,1041.548828 721.037842,1021.433716 
	C793.807373,987.136292 863.246399,947.025696 929.848328,901.970154 
	C977.945190,869.433105 1024.472534,834.777771 1068.507080,796.899963 
	C1091.053833,777.505493 1113.234619,757.656616 1135.006226,737.395691 
	C1188.908081,687.233948 1238.017212,632.704651 1282.542603,574.033875 
	C1317.798462,527.577576 1349.368164,478.787842 1375.654785,426.713379 
	C1402.127319,374.270477 1422.751465,319.707764 1432.585083,261.505280 
	C1436.409302,238.871033 1438.559326,216.030777 1437.799927,193.064835 
	C1436.407715,150.953308 1427.306152,110.838844 1405.884399,74.026459 
	C1392.151978,50.427460 1373.983032,30.816666 1352.775635,13.849577 
	C1351.895508,13.145400 1351.098511,12.337440 1350.635986,10.635283 
	C1364.208374,14.268247 1377.876099,17.581701 1391.335693,21.593704 
	C1432.679077,33.917240 1471.595337,51.514969 1507.344971,75.849960 
	C1526.234497,88.708237 1543.838623,103.160393 1559.655884,119.618019 
	C1593.269287,154.591995 1618.042236,195.073792 1633.934082,240.951797 
	C1644.404785,271.180084 1651.117798,302.216522 1653.148926,334.139465 
	C1654.267090,351.714905 1655.289062,369.384979 1654.735352,386.961365 
	C1653.197754,435.766693 1644.512451,483.501831 1630.849487,530.328064 
	C1616.719971,578.752930 1597.707153,625.269226 1574.939453,670.234497 
	C1547.724121,723.983765 1515.845459,774.876892 1480.089111,823.355835 
	C1454.921265,857.478821 1428.650391,890.736633 1399.655640,921.681702 
	C1373.269409,949.842834 1346.807007,978.007690 1319.038208,1004.781128 
	C1273.556152,1048.632935 1224.857422,1088.808716 1174.020996,1126.358276 
	C1115.914673,1169.277344 1055.311523,1208.282837 991.940308,1242.993042 
	C949.943665,1265.995972 907.216675,1287.588379 862.842957,1305.531494 
	C824.709473,1320.951294 785.811401,1334.480347 746.860107,1348.934082 
z"/>
<path fill="#9DBADB" opacity="1.000000" stroke="none" 
	d="
M434.679779,243.686890 
	C455.020996,228.676010 474.841919,213.541061 495.233246,199.218277 
	C536.245850,170.411209 579.087097,144.563614 623.390747,121.100166 
	C669.335815,96.767418 716.624634,75.538086 765.544434,57.917774 
	C807.683411,42.739834 850.627808,30.372690 894.718323,22.534063 
	C917.529236,18.478626 940.618225,15.452367 963.713562,13.695113 
	C983.540894,12.186504 1003.599426,12.252921 1023.477051,13.227797 
	C1050.299927,14.543295 1076.778320,18.600143 1102.650757,26.516157 
	C1130.135986,34.925602 1155.532959,47.122448 1177.717407,65.419876 
	C1204.591309,87.585236 1223.033081,115.524544 1233.104736,148.936310 
	C1237.533447,163.627686 1240.015137,178.610336 1241.115234,193.930908 
	C1244.441772,240.258682 1234.661865,284.371887 1219.249756,327.598053 
	C1218.205078,330.528015 1217.221680,333.479889 1215.866699,337.419067 
	C1213.705566,330.338440 1212.207031,324.190155 1209.972412,318.322113 
	C1200.232300,292.743103 1180.911377,277.170898 1155.954712,267.989441 
	C1137.236694,261.103180 1117.733643,258.379822 1097.794189,257.912842 
	C1076.997559,257.425781 1056.263428,258.537201 1035.934326,262.413300 
	C1012.675293,266.847992 989.414185,271.933533 966.774536,278.786377 
	C939.358948,287.084900 912.055969,296.256165 885.684753,307.375183 
	C854.010071,320.730316 822.894653,335.622955 792.376892,351.467407 
	C726.246582,385.801361 664.021484,426.445007 605.320129,472.301910 
	C578.900085,492.940918 553.323853,514.701721 527.987915,536.672119 
	C511.046478,551.363098 494.659546,566.788208 478.974487,582.814636 
	C439.616394,623.029358 402.885254,665.482910 372.404236,712.997986 
	C353.761444,742.059143 337.277100,772.226318 326.589600,805.224792 
	C320.104523,825.247803 315.912140,845.717712 317.050629,866.921814 
	C318.731354,898.224243 331.653564,923.128113 359.066650,939.607971 
	C359.873230,940.092896 360.630890,940.659119 362.382233,941.844666 
	C359.936646,941.995789 358.562286,942.121216 357.185486,942.159851 
	C327.835938,942.985168 298.671173,940.892700 269.962433,934.823608 
	C233.762497,927.170837 199.788651,914.005676 170.906906,890.115906 
	C138.511215,863.319641 119.165565,828.709412 110.907860,787.658936 
	C107.012810,768.295898 105.933136,748.707458 107.099976,729.101196 
	C109.295631,692.207581 117.671379,656.528809 130.995239,622.129944 
	C138.373322,603.081665 146.249084,584.133789 155.354721,565.865479 
	C176.483231,523.476318 201.922775,483.638702 231.309677,446.526550 
	C251.094193,421.541107 271.813019,397.234131 293.156006,373.563232 
	C310.621918,354.192291 328.815277,335.311615 348.144470,317.825562 
	C376.213776,292.432831 405.595520,268.490906 434.679779,243.686890 
z"/>
</svg>