<svg xmlns="http://www.w3.org/2000/svg" version="1.0" width="224.000000pt" height="225.000000pt" viewBox="0 0 224.000000 225.000000" preserveAspectRatio="xMidYMid meet">

<g transform="translate(0.000000,225.000000) scale(0.100000,-0.100000)" fill="#000000" stroke="none">
<path d="M670 2082 c-245 -57 -446 -105 -447 -106 -5 -4 207 -1590 214 -1597 13 -12 667 -309 681 -309 15 0 672 297 685 309 7 7 219 1593 214 1597 -1 1 -200 47 -442 103 -242 56 -444 103 -450 105 -5 1 -210 -45 -455 -102z m534 -263 c48 -72 86 -132 84 -134 -2 -2 -27 1 -57 7 -29 5 -55 7 -58 5 -5 -6 -22 -227 -23 -294 l0 -43 -39 0 -39 0 -7 166 c-5 108 -11 167 -19 170 -6 2 -34 0 -61 -5 -28 -5 -51 -8 -53 -6 -5 5 170 265 178 265 4 0 46 -59 94 -131z m-590 -154 c90 -24 162 -64 217 -122 l50 -53 36 25 c20 13 39 23 41 21 3 -4 -44 -186 -51 -192 -6 -6 -177 88 -177 98 0 4 10 8 23 8 38 0 51 14 37 40 -39 72 -149 149 -237 166 -35 7 -45 24 -15 24 10 0 44 -7 76 -15z m1096 6 c0 -5 -15 -12 -32 -15 -89 -17 -199 -94 -238 -166 -14 -26 -1 -40 38 -40 12 0 22 -4 22 -9 0 -9 -170 -104 -176 -99 -5 6 -55 191 -52 194 2 2 21 -7 42 -20 l38 -23 44 47 c24 26 67 60 96 75 82 45 218 80 218 56z m-439 -385 c139 -25 229 -80 229 -141 0 -146 -456 -208 -687 -95 -120 59 -120 131 -1 190 115 56 298 74 459 46z m-459 -262 c149 -76 464 -73 617 6 23 11 47 29 53 40 7 11 15 20 18 20 3 0 4 -42 2 -94 -3 -85 -6 -97 -28 -119 -108 -108 -470 -131 -659 -41 -80 37 -95 66 -95 179 l1 90 20 -28 c12 -15 44 -39 71 -53z m57 -234 c204 -63 501 -35 599 57 35 33 48 42 37 23 -3 -5 -6 -94 -6 -197 0 -211 -2 -219 -70 -254 -78 -39 -132 -51 -270 -56 -159 -6 -252 6 -336 46 -90 43 -97 56 -101 170 l-4 96 34 -31 c62 -59 152 -88 309 -100 146 -11 335 28 399 83 43 35 37 49 -7 18 -66 -45 -155 -67 -294 -72 -186 -8 -331 24 -403 87 -30 28 -31 31 -35 126 l-3 97 43 -37 c26 -22 68 -44 108  -56z" fill="#FF0000" />
</g>
</svg>