<svg xmlns="http://www.w3.org/2000/svg" xmlns:xlink="http://www.w3.org/1999/xlink" version="1.1" id="Layer_1" x="0px" y="0px" width="100%" viewBox="0 0 512 512" enable-background="new 0 0 512 512" xml:space="preserve">
<path fill="#563be5" opacity="1.000000" stroke="none" d=" M328.745972,304.714325   C325.358978,313.097107 321.994141,321.078949 318.964111,329.185913   C317.598969,332.838440 315.546783,334.371460 311.557190,334.278778   C301.565430,334.046600 291.561310,334.040344 281.569489,334.266785   C277.547333,334.357910 275.691376,332.907440 274.502869,329.046082   C267.014343,304.717285 259.304047,280.456604 251.615417,256.189728   C250.937622,254.050430 250.630066,251.658478 248.835129,249.982803   C246.818970,250.912460 246.745361,252.733765 246.252914,254.230301   C238.192993,278.724854 230.057648,303.195862 222.241348,327.768250   C220.744308,332.474579 218.663010,334.543701 213.500137,334.337494   C203.685257,333.945435 193.842133,334.114258 184.014297,334.271332   C180.620895,334.325562 178.530090,333.232941 176.832825,330.170868   C171.504242,320.557404 165.913605,311.087402 160.316528,301.625702   C158.866913,299.175171 158.208191,296.709290 159.075806,294.011688   C165.090256,275.311340 171.139587,256.622162 177.220947,237.943466   C177.508820,237.059326 177.661636,235.950714 179.737549,235.163177   C187.232986,247.810837 192.717743,261.835052 200.556030,274.430054   C203.734711,273.020782 203.808426,270.606293 204.450958,268.663910   C213.544952,241.172882 222.669693,213.690979 231.506454,186.116959   C233.026718,181.373108 235.192764,179.260971 240.327225,179.621063   C246.295700,180.039642 252.316406,179.721069 258.314423,179.709274   C265.633850,179.694901 265.876587,179.884155 268.168579,187.440033   C276.186096,213.870743 284.197510,240.303314 292.241852,266.725861   C292.997803,269.208801 293.969330,271.626129 294.856476,274.118011   C297.645813,273.202576 298.038300,271.078979 298.785828,269.335358   C310.726929,241.481766 322.708588,213.644836 334.447052,185.705826   C336.261963,181.386063 338.604401,179.491730 343.373993,179.634369   C353.195587,179.928085 363.031982,179.711731 372.862152,179.748688   C374.488342,179.754791 376.212494,179.430893 378.561554,181.288391   C362.087372,222.120087 345.496002,263.242249 328.745972,304.714325  z"/>
<path fill="#7d7a8c" opacity="1.000000" stroke="none" d=" M53.042789,233.000000   C53.074356,217.007492 53.202499,201.514191 53.075600,186.022980   C53.036770,181.282150 54.336452,179.454971 59.601315,179.550888   C79.418785,179.911819 99.252472,179.403793 119.068962,179.790878   C135.425491,180.110367 150.286652,184.564072 161.056580,198.108032   C162.978668,200.525177 163.602158,202.793808 162.578613,205.905075   C155.195801,228.346634 147.838776,250.799316 140.831543,273.359680   C139.321671,278.220917 136.407791,279.686493 131.934662,280.367615   C121.158913,282.008331 110.335258,281.333893 99.539284,281.261841   C94.788605,281.230164 93.146828,282.606354 93.247566,287.486755   C93.532829,301.307678 93.246666,315.139435 93.403664,328.964478   C93.446877,332.770050 92.290123,334.364624 88.299553,334.290375   C78.307755,334.104523 68.309387,334.164276 58.315228,334.271698   C54.834682,334.309082 53.374767,333.375183 53.378494,329.420990   C53.408627,297.447449 53.186466,265.473694 53.042789,233.000000  M130.728775,229.627243   C130.250732,219.051163 124.065971,211.963028 114.567642,211.420258   C109.248947,211.116333 103.903961,211.299606 98.578346,211.080460   C94.657333,210.919128 93.269569,212.704605 93.315918,216.480255   C93.436584,226.310242 93.498825,236.145966 93.279114,245.972580   C93.191986,249.869568 94.822472,250.833405 98.336952,250.726700   C103.160385,250.580261 107.948013,250.380585 112.764748,249.856537   C125.108719,248.513519 130.477463,242.946899 130.728775,229.627243  z"/>
<path fill="#7d7a8c" opacity="1.000000" stroke="none" d=" M387.894287,275.672974   C397.678528,275.655457 397.623413,275.675995 394.290863,266.735352   C390.513672,256.601898 386.858093,246.423157 383.128113,236.272018   C382.132385,233.562195 381.538239,230.932220 382.704803,228.043213   C388.561218,213.539597 394.314026,198.994186 400.139374,184.477966   C400.622101,183.275116 401.060150,181.935898 402.536957,181.396637   C404.450378,182.256149 404.695435,184.224884 405.317749,185.870834   C423.091888,232.883698 440.850586,279.902435 458.566193,326.937408   C461.236755,334.027802 461.030243,334.237854 453.671387,334.248138   C443.012878,334.263031 432.352600,334.140106 421.696808,334.310364   C418.298889,334.364624 416.597473,333.119934 415.542297,329.921265   C413.510468,323.762146 410.901611,317.791016 408.934906,311.613617   C407.651581,307.582520 405.360657,306.241425 401.221924,306.300995   C387.235474,306.502380 373.244385,306.398010 359.255127,306.370514   C357.290131,306.366638 355.250122,306.758240 352.868988,305.402832   C353.553528,300.778351 355.776459,296.487061 357.520355,292.090393   C359.596497,286.856049 360.105408,280.126007 364.376801,276.866577   C368.736725,273.539581 375.322815,276.068878 380.918610,275.697266   C383.074219,275.554108 385.247284,275.673553 387.894287,275.672974  z"/>
</svg>